<mxfile host="app.diagrams.net" agent="Mozilla/5.0 (Windows NT 10.0; Win64; x64) AppleWebKit/537.36 (KHTML, like Gecko) Chrome/129.0.0.0 Safari/537.36" version="24.7.16">
  <diagram name="Page-1" id="QV81nTVIPsVDJjigDN6Y">
    <mxGraphModel dx="2418" dy="634" grid="1" gridSize="10" guides="1" tooltips="1" connect="1" arrows="1" fold="1" page="1" pageScale="1" pageWidth="827" pageHeight="1169" math="0" shadow="0">
      <root>
        <mxCell id="0" />
        <mxCell id="1" parent="0" />
        <mxCell id="HIwAq_E5rn6QQ2wE8op6-1" value="Indicar si un numero tiene tres cifras&lt;div&gt;leer numero&lt;/div&gt;&lt;div&gt;verificar numero sea mayor a 99&lt;/div&gt;&lt;div&gt;Si numero no es mayor a 99 mostrar &quot;numero no es de tres cifras&quot;&amp;nbsp;&lt;/div&gt;&lt;div&gt;Si numero&amp;gt;100 verificar si numero es&amp;nbsp; menor a 1000&lt;/div&gt;&lt;div&gt;Si numero es menor a 1000 mostrar el numero es de tres cifras&lt;/div&gt;&lt;div&gt;Si numero es mayor a 1000&amp;nbsp;&lt;span style=&quot;background-color: initial;&quot;&gt;mostrar &quot;numero no es de tres cifras&quot;&lt;/span&gt;&lt;/div&gt;" style="text;html=1;align=center;verticalAlign=middle;resizable=0;points=[];autosize=1;strokeColor=none;fillColor=none;" vertex="1" parent="1">
          <mxGeometry x="-100" y="200" width="380" height="110" as="geometry" />
        </mxCell>
        <mxCell id="HIwAq_E5rn6QQ2wE8op6-4" value="" style="edgeStyle=orthogonalEdgeStyle;rounded=0;orthogonalLoop=1;jettySize=auto;html=1;" edge="1" parent="1" source="HIwAq_E5rn6QQ2wE8op6-2" target="HIwAq_E5rn6QQ2wE8op6-3">
          <mxGeometry relative="1" as="geometry" />
        </mxCell>
        <mxCell id="HIwAq_E5rn6QQ2wE8op6-2" value="Inicio&amp;nbsp;" style="ellipse;whiteSpace=wrap;html=1;aspect=fixed;" vertex="1" parent="1">
          <mxGeometry x="370" y="170" width="80" height="80" as="geometry" />
        </mxCell>
        <mxCell id="HIwAq_E5rn6QQ2wE8op6-6" value="" style="edgeStyle=orthogonalEdgeStyle;rounded=0;orthogonalLoop=1;jettySize=auto;html=1;" edge="1" parent="1" source="HIwAq_E5rn6QQ2wE8op6-3" target="HIwAq_E5rn6QQ2wE8op6-5">
          <mxGeometry relative="1" as="geometry" />
        </mxCell>
        <mxCell id="HIwAq_E5rn6QQ2wE8op6-3" value="Leer numero" style="shape=parallelogram;perimeter=parallelogramPerimeter;whiteSpace=wrap;html=1;fixedSize=1;" vertex="1" parent="1">
          <mxGeometry x="350" y="340" width="120" height="60" as="geometry" />
        </mxCell>
        <mxCell id="HIwAq_E5rn6QQ2wE8op6-10" value="" style="edgeStyle=orthogonalEdgeStyle;rounded=0;orthogonalLoop=1;jettySize=auto;html=1;" edge="1" parent="1" source="HIwAq_E5rn6QQ2wE8op6-5" target="HIwAq_E5rn6QQ2wE8op6-9">
          <mxGeometry relative="1" as="geometry" />
        </mxCell>
        <mxCell id="HIwAq_E5rn6QQ2wE8op6-13" value="" style="edgeStyle=orthogonalEdgeStyle;rounded=0;orthogonalLoop=1;jettySize=auto;html=1;" edge="1" parent="1" source="HIwAq_E5rn6QQ2wE8op6-5" target="HIwAq_E5rn6QQ2wE8op6-12">
          <mxGeometry relative="1" as="geometry" />
        </mxCell>
        <mxCell id="HIwAq_E5rn6QQ2wE8op6-5" value="numero &amp;gt;= 100" style="rhombus;whiteSpace=wrap;html=1;" vertex="1" parent="1">
          <mxGeometry x="340" y="470" width="120" height="80" as="geometry" />
        </mxCell>
        <mxCell id="HIwAq_E5rn6QQ2wE8op6-24" style="edgeStyle=orthogonalEdgeStyle;rounded=0;orthogonalLoop=1;jettySize=auto;html=1;entryX=1;entryY=0.5;entryDx=0;entryDy=0;" edge="1" parent="1" source="HIwAq_E5rn6QQ2wE8op6-9" target="HIwAq_E5rn6QQ2wE8op6-21">
          <mxGeometry relative="1" as="geometry">
            <Array as="points">
              <mxPoint x="690" y="940" />
            </Array>
          </mxGeometry>
        </mxCell>
        <mxCell id="HIwAq_E5rn6QQ2wE8op6-9" value="Mostrar &quot;numero no tiene 3 cifras&quot;" style="shape=parallelogram;perimeter=parallelogramPerimeter;whiteSpace=wrap;html=1;fixedSize=1;" vertex="1" parent="1">
          <mxGeometry x="590" y="480" width="200" height="60" as="geometry" />
        </mxCell>
        <mxCell id="HIwAq_E5rn6QQ2wE8op6-11" value="No" style="text;html=1;align=center;verticalAlign=middle;whiteSpace=wrap;rounded=0;" vertex="1" parent="1">
          <mxGeometry x="480" y="470" width="60" height="30" as="geometry" />
        </mxCell>
        <mxCell id="HIwAq_E5rn6QQ2wE8op6-19" value="" style="edgeStyle=orthogonalEdgeStyle;rounded=0;orthogonalLoop=1;jettySize=auto;html=1;" edge="1" parent="1" source="HIwAq_E5rn6QQ2wE8op6-12" target="HIwAq_E5rn6QQ2wE8op6-18">
          <mxGeometry relative="1" as="geometry" />
        </mxCell>
        <mxCell id="HIwAq_E5rn6QQ2wE8op6-12" value="numero &amp;lt;= 999&amp;nbsp;" style="rhombus;whiteSpace=wrap;html=1;" vertex="1" parent="1">
          <mxGeometry x="-20" y="560" width="130" height="80" as="geometry" />
        </mxCell>
        <mxCell id="HIwAq_E5rn6QQ2wE8op6-14" value="SI" style="text;html=1;align=center;verticalAlign=middle;whiteSpace=wrap;rounded=0;" vertex="1" parent="1">
          <mxGeometry x="260" y="470" width="60" height="30" as="geometry" />
        </mxCell>
        <mxCell id="HIwAq_E5rn6QQ2wE8op6-15" value="" style="edgeStyle=orthogonalEdgeStyle;rounded=0;orthogonalLoop=1;jettySize=auto;html=1;exitX=1;exitY=0.5;exitDx=0;exitDy=0;" edge="1" parent="1" target="HIwAq_E5rn6QQ2wE8op6-16" source="HIwAq_E5rn6QQ2wE8op6-12">
          <mxGeometry relative="1" as="geometry">
            <mxPoint x="100" y="670" as="sourcePoint" />
            <Array as="points">
              <mxPoint x="280" y="600" />
            </Array>
          </mxGeometry>
        </mxCell>
        <mxCell id="HIwAq_E5rn6QQ2wE8op6-23" style="edgeStyle=orthogonalEdgeStyle;rounded=0;orthogonalLoop=1;jettySize=auto;html=1;entryX=0.5;entryY=0;entryDx=0;entryDy=0;" edge="1" parent="1" source="HIwAq_E5rn6QQ2wE8op6-16" target="HIwAq_E5rn6QQ2wE8op6-21">
          <mxGeometry relative="1" as="geometry" />
        </mxCell>
        <mxCell id="HIwAq_E5rn6QQ2wE8op6-16" value="Mostrar &quot;numero no tiene 3 cifras&quot;" style="shape=parallelogram;perimeter=parallelogramPerimeter;whiteSpace=wrap;html=1;fixedSize=1;" vertex="1" parent="1">
          <mxGeometry x="160" y="700" width="180" height="60" as="geometry" />
        </mxCell>
        <mxCell id="HIwAq_E5rn6QQ2wE8op6-17" value="No" style="text;html=1;align=center;verticalAlign=middle;whiteSpace=wrap;rounded=0;" vertex="1" parent="1">
          <mxGeometry x="140" y="560" width="60" height="30" as="geometry" />
        </mxCell>
        <mxCell id="HIwAq_E5rn6QQ2wE8op6-22" style="edgeStyle=orthogonalEdgeStyle;rounded=0;orthogonalLoop=1;jettySize=auto;html=1;entryX=0;entryY=0.5;entryDx=0;entryDy=0;" edge="1" parent="1" source="HIwAq_E5rn6QQ2wE8op6-18" target="HIwAq_E5rn6QQ2wE8op6-21">
          <mxGeometry relative="1" as="geometry" />
        </mxCell>
        <mxCell id="HIwAq_E5rn6QQ2wE8op6-18" value="Mostrar &quot;numero tiene 3 cifras&quot;" style="shape=parallelogram;perimeter=parallelogramPerimeter;whiteSpace=wrap;html=1;fixedSize=1;" vertex="1" parent="1">
          <mxGeometry x="-220" y="710" width="120" height="60" as="geometry" />
        </mxCell>
        <mxCell id="HIwAq_E5rn6QQ2wE8op6-20" value="SI" style="text;html=1;align=center;verticalAlign=middle;whiteSpace=wrap;rounded=0;" vertex="1" parent="1">
          <mxGeometry x="-120" y="560" width="60" height="30" as="geometry" />
        </mxCell>
        <mxCell id="HIwAq_E5rn6QQ2wE8op6-21" value="Fin" style="ellipse;whiteSpace=wrap;html=1;aspect=fixed;" vertex="1" parent="1">
          <mxGeometry x="220" y="900" width="80" height="80" as="geometry" />
        </mxCell>
      </root>
    </mxGraphModel>
  </diagram>
</mxfile>
